<svg width="136" height="59" viewBox="0 0 136 59" fill="none" xmlns="http://www.w3.org/2000/svg">
<path fill-rule="evenodd" clip-rule="evenodd" d="M63.7843 20.3076V27.5665H70.1482C72.8095 27.5665 74.198 26.4143 74.198 23.8794C74.198 21.575 72.6938 20.3076 69.9168 20.3076H63.7843ZM69.9168 21.2077H64.6883V26.6663H70.1482C71.3687 26.6663 72.1226 26.3994 72.5687 26.0023C72.9948 25.6231 73.294 24.9866 73.294 23.8794C73.294 22.9336 72.9943 22.3176 72.5173 21.9186C72.0149 21.4984 71.183 21.2077 69.9168 21.2077Z" fill="#DDD8D0"/>
<path fill-rule="evenodd" clip-rule="evenodd" d="M100.847 20.3076H106.979C109.756 20.3076 111.26 21.575 111.26 23.8794C111.26 26.4143 109.872 27.5665 107.211 27.5665H100.847V20.3076ZM101.751 21.2077H106.979C108.245 21.2077 109.077 21.4984 109.58 21.9186C110.057 22.3176 110.356 22.9336 110.356 23.8794C110.356 24.9866 110.057 25.6231 109.631 26.0023C109.185 26.3994 108.431 26.6663 107.211 26.6663H101.751V21.2077Z" fill="#DDD8D0"/>
<path fill-rule="evenodd" clip-rule="evenodd" d="M25.6653 20.1419V27.4008H32.0291C34.6904 27.4008 36.0789 26.2486 36.0789 23.7138C36.0789 21.4094 34.5747 20.1419 31.7977 20.1419H25.6653ZM31.7977 21.0421H26.5692V26.5007H32.0291C33.2496 26.5007 34.0035 26.2337 34.4497 25.8367C34.8758 25.4575 35.1749 24.821 35.1749 23.7138C35.1749 22.7679 34.8752 22.1519 34.3983 21.753C33.8959 21.3327 33.0639 21.0421 31.7977 21.0421Z" fill="#DDD8D0"/>
<path fill-rule="evenodd" clip-rule="evenodd" d="M87.0927 53.0936C81.7961 57.0301 75.6422 59 68.5283 59C61.13 59 54.766 56.8692 49.3995 52.6057C44.0076 56.7569 37.7147 58.8344 30.4093 58.8344C21.8545 58.8344 14.6827 55.9854 8.83687 50.2845C2.87178 44.5805 0 37.6623 0 29.4748C0 21.2913 2.86897 14.2566 8.83696 8.54981C14.6828 2.84893 21.8546 0 30.4093 0C37.8105 0 44.1726 2.13231 49.6114 6.39314C54.9333 2.24085 61.2271 0.165648 68.5283 0.165648C75.6422 0.165648 81.7961 2.13558 87.0927 6.07207C92.3251 2.13388 98.4802 0.165648 105.591 0.165648C114.149 0.165648 121.317 3.01649 127.275 8.71231L127.282 8.71867L127.289 8.72516C133.01 14.4223 136 21.4484 136 29.6404C136 37.8364 133.007 44.7461 127.289 50.4405L127.282 50.447L127.275 50.4533C121.317 56.1492 114.149 59 105.591 59C98.4802 59 92.3251 57.0318 87.0927 53.0936ZM51.4679 49.6383C50.7972 50.2796 50.1108 50.8836 49.4086 51.4505C48.7868 50.932 48.1791 50.3832 47.5854 49.804C46.6384 48.8988 45.7721 47.9627 44.9853 46.9952C45.6229 46.4956 46.241 45.9557 46.8397 45.3752C47.8213 44.3977 48.6934 43.3657 49.4546 42.2792C50.2505 43.3919 51.1701 44.4412 52.2136 45.4256C52.7566 45.9663 53.3155 46.4719 53.8902 46.9427C53.1492 47.87 52.3415 48.7684 51.4679 49.6383ZM68.5283 58.0998C61.4022 58.0998 55.292 56.0765 50.1254 52.0299C50.7958 51.4822 51.4519 50.9015 52.094 50.2877L52.1006 50.2813L52.1071 50.2748C53.0057 49.3801 53.8369 48.4554 54.5998 47.5003C58.5317 50.4621 63.1746 51.8779 68.5283 51.8779C73.6258 51.8779 78.032 50.639 81.8005 48.108C82.4854 48.9103 83.2245 49.691 84.0184 50.4501C84.7744 51.1874 85.5526 51.877 86.3531 52.5188C81.2605 56.2395 75.3614 58.0998 68.5283 58.0998ZM87.8363 6.64208C92.8637 2.92456 98.7605 1.06581 105.591 1.06581C113.922 1.06581 120.864 3.83109 126.649 9.36167C132.203 14.8922 135.096 21.6902 135.096 29.6404C135.096 37.5906 132.203 44.2734 126.649 49.804C120.864 55.3346 113.922 58.0998 105.591 58.0998C98.7605 58.0998 92.8637 56.2411 87.8363 52.5236C88.6491 51.8812 89.4412 51.1912 90.213 50.4533L90.2197 50.447L90.2262 50.4405C91.0064 49.6636 91.7358 48.8641 92.4139 48.0418C96.182 50.6349 100.574 51.8779 105.591 51.8779C112.186 51.8779 117.624 49.804 122.021 45.5408C126.302 41.2777 128.501 35.9776 128.501 29.6404C128.501 23.3033 126.302 18.0032 122.021 13.6248C117.509 9.36167 112.07 7.17248 105.591 7.17248C100.557 7.17248 96.1516 8.49373 92.3748 11.0822C91.7079 10.273 90.9915 9.48719 90.2262 8.72516L90.2197 8.71867L90.213 8.71231C89.4412 7.97449 88.6491 7.28441 87.8363 6.64208ZM86.3531 6.64682C81.2605 2.92614 75.3614 1.06581 68.5283 1.06581C61.4972 1.06581 55.4551 3.03554 50.3324 6.97501C50.931 7.47232 51.5181 7.9962 52.094 8.54666L52.1006 8.55302L52.1071 8.55951C53.0548 9.50321 53.9276 10.4834 54.7242 11.4992C58.6295 8.63573 63.2309 7.17248 68.5283 7.17248C73.5582 7.17248 77.9606 8.49166 81.7896 11.0761C82.4775 10.2658 83.2202 9.47873 84.0185 8.71546C84.7744 7.97822 85.5526 7.28867 86.3531 6.64682ZM82.5308 11.5975C83.1853 10.8307 83.8908 10.0853 84.6478 9.36167C85.4391 8.58977 86.2552 7.87174 87.0964 7.20757C87.9496 7.87174 88.7796 8.58977 89.587 9.36167C90.3172 10.0888 91.0014 10.8378 91.639 11.6084C90.8205 12.2187 90.0329 12.891 89.2761 13.6248C88.4668 14.4095 87.732 15.2293 87.0716 16.085C86.4356 15.2345 85.731 14.4146 84.9587 13.6248C84.1774 12.8867 83.3683 12.2107 82.5308 11.5975ZM81.2142 11.7754C77.5512 9.32243 73.3476 8.07264 68.5283 8.07264C63.4238 8.07264 59.0144 9.47458 55.27 12.2169C55.6158 12.6861 55.9458 13.1626 56.2599 13.6464H70.4954C73.6967 13.6464 76.4541 14.4008 78.4855 15.896C79.2571 14.4645 80.1659 13.0903 81.2142 11.7754ZM79.1988 16.4774C79.9709 15.0212 80.8889 13.6261 81.9554 12.2935C82.7722 12.8889 83.5613 13.5464 84.3235 14.2655C85.1303 15.0918 85.8597 15.9513 86.5111 16.8454C83.9575 20.4752 82.6808 24.7233 82.6808 29.6404C82.6808 34.4938 83.9702 38.7389 86.5492 42.324C85.8882 43.2223 85.1461 44.0809 84.3238 44.9001C83.5696 45.631 82.7836 46.295 81.9648 46.8926C81.4522 46.2564 80.9739 45.6066 80.5295 44.9431H84.0315L82.7524 43.4572C82.242 42.8642 81.8057 41.7101 81.6955 39.9541L81.6948 39.9437L81.3486 35.9214C81.2844 34.3268 80.9414 32.9451 80.2764 31.7863C79.8696 31.0773 79.3528 30.4704 78.7342 29.9581C79.6143 29.3779 80.3319 28.6448 80.8716 27.7602C81.6715 26.4492 82.0444 24.8659 82.0444 23.0729C82.0444 20.3403 81.0257 18.1211 79.1988 16.4774ZM78.0657 16.7079C76.2238 15.3018 73.6304 14.5466 70.4954 14.5466H57.0733V14.977C59.5462 19.2833 60.8185 24.131 60.8185 29.4748C60.8185 34.8202 59.5454 39.6186 57.0733 43.8894V44.043H63.7843V33.097H70.0325C71.3053 33.097 72.231 33.4427 72.6938 33.9036C73.1566 34.4797 73.5037 35.5167 73.7352 36.8993L73.9666 40.0103C74.0823 41.969 74.4294 43.3516 75.0079 44.043H78.9002C76.4006 39.7708 75.1815 34.9751 75.1815 29.6404C75.1815 24.9391 76.1284 20.617 78.0657 16.7079ZM79.9526 44.043C77.3508 39.796 76.0855 35.007 76.0855 29.6404C76.0855 25.1585 76.968 21.0427 78.7746 17.3138C80.2954 18.7661 81.1404 20.6857 81.1404 23.0729C81.1404 25.9996 80.0751 28.1308 77.9446 29.3889C77.6428 29.5672 77.3195 29.7279 76.975 29.8709C77.3037 30.0432 77.6091 30.2335 77.8913 30.4426C79.4961 31.6321 80.3478 33.4298 80.4462 35.9776L80.7933 40.0103C80.8735 41.289 81.1208 42.346 81.4965 43.1428C81.6624 43.4947 81.8534 43.7959 82.0661 44.043H79.9526ZM79.4508 44.9431H74.5845L74.3135 44.6192C73.902 44.1275 73.6271 43.4629 73.4378 42.7246C73.2459 41.9759 73.1247 41.082 73.0646 40.07L72.8367 37.0073C72.6178 35.7195 72.3162 34.9063 72.0209 34.5086C71.7681 34.2864 71.1284 33.9972 70.0325 33.9972H64.6883V44.9431H56.4323C56.0323 45.5697 55.6055 46.1846 55.1522 46.7877C58.9147 49.6192 63.3597 50.9778 68.5283 50.9778C73.4254 50.9778 77.6289 49.8018 81.2228 47.41C80.5799 46.6087 79.9894 45.7865 79.4508 44.9431ZM82.5424 47.5871C83.1936 48.3457 83.8952 49.0846 84.6478 49.804C85.4391 50.5759 86.2552 51.2939 87.0964 51.9581C87.9496 51.2939 88.7796 50.5759 89.587 49.804C90.3328 49.0614 91.0305 48.298 91.6798 47.5135C90.8467 46.8873 90.0454 46.1917 89.2761 45.4256C88.4847 44.679 87.7645 43.8951 87.1155 43.0745C86.468 43.9319 85.7488 44.754 84.9587 45.5408C84.1857 46.2904 83.3804 46.9722 82.5424 47.5871ZM87.6657 42.3125C88.329 43.1741 89.073 43.9941 89.8978 44.7721L89.9066 44.7805L89.9152 44.7891C90.6605 45.5313 91.4368 46.2046 92.2445 46.8101C92.7193 46.2002 93.1656 45.5779 93.583 44.9431H93.2318V13.719C92.9053 13.2426 92.5625 12.7735 92.2036 12.312C91.4078 12.9038 90.6422 13.5566 89.9067 14.2698C89.0599 15.0907 88.2982 15.9513 87.6215 16.8528C90.1487 20.5415 91.4383 24.7868 91.4383 29.6404C91.4383 34.4657 90.1638 38.6897 87.6657 42.3125ZM87.0613 17.6369C84.7442 21.0501 83.5847 25.0268 83.5847 29.6404C83.5847 34.1959 84.7579 38.1681 87.0996 41.5388C89.3744 38.1276 90.5344 34.1692 90.5344 29.6404C90.5344 25.0899 89.3631 21.1114 87.0613 17.6369ZM92.9394 11.7881C93.4102 12.3949 93.8541 13.0144 94.2707 13.6464H107.558C110.937 13.6464 113.822 14.487 115.88 16.1524C117.946 17.8237 119.107 20.1558 119.107 23.0729C119.107 24.8659 118.734 26.4492 117.934 27.7602C117.394 28.6448 116.677 29.3779 115.797 29.9581C116.415 30.4704 116.932 31.0773 117.339 31.7863C118.004 32.9451 118.347 34.3268 118.411 35.9214L118.757 39.9437L118.758 39.9541C118.868 41.7101 119.304 42.8642 119.815 43.4572L121.094 44.9431H111.647L111.376 44.6192C110.964 44.1275 110.69 43.4629 110.5 42.7246C110.308 41.9759 110.187 41.082 110.127 40.07L109.899 37.0073C109.68 35.7195 109.379 34.9063 109.083 34.5086C108.83 34.2864 108.191 33.9972 107.095 33.9972H101.751V44.9431H94.6564C94.1423 45.7607 93.5829 46.5583 92.9787 47.3361C96.5749 49.7949 100.768 50.9778 105.591 50.9778C111.971 50.9778 117.175 48.9813 121.386 44.9001C125.49 40.8116 127.597 35.7441 127.597 29.6404C127.597 23.5429 125.494 18.4725 121.386 14.2655C117.046 10.1707 111.835 8.07264 105.591 8.07264C100.759 8.07264 96.5509 9.32851 92.9394 11.7881ZM95.1994 44.043H100.847V33.097H107.095C108.368 33.097 109.293 33.4427 109.756 33.9036C110.219 34.4797 110.566 35.5167 110.798 36.8993L111.029 40.0103C111.145 41.969 111.492 43.3516 112.07 44.043H119.128C118.916 43.7959 118.725 43.4947 118.559 43.1428C118.183 42.346 117.936 41.289 117.856 40.0103L117.509 35.9776C117.41 33.4298 116.559 31.6321 114.954 30.4426C114.672 30.2335 114.366 30.0432 114.037 29.8709C114.382 29.7279 114.705 29.5672 115.007 29.3889C117.138 28.1308 118.203 25.9996 118.203 23.0729C118.203 20.4228 117.161 18.3489 115.31 16.851C113.459 15.3531 110.798 14.5466 107.558 14.5466H94.8404C97.5444 19.0001 98.9376 24.0486 98.9376 29.6404C98.9376 34.9808 97.6669 39.7751 95.1994 44.043ZM94.1358 15.1264V44.043H94.1507C96.7156 39.796 98.0336 35.007 98.0336 29.6404C98.0336 24.2635 96.7105 19.4136 94.1358 15.1264ZM46.956 50.4501C47.5193 50.9995 48.0949 51.5224 48.6829 52.0188C43.4889 55.9624 37.4441 57.9342 30.4093 57.9342C22.0783 57.9342 15.1359 55.1689 9.46628 49.6383C3.68093 44.1078 0.903961 37.425 0.903961 29.4748C0.903961 21.5246 3.68093 14.7266 9.46628 9.19602C15.1359 3.66544 22.0783 0.900158 30.4093 0.900158C37.5376 0.900158 43.6494 2.92474 48.8896 6.97392C48.2297 7.5214 47.5852 8.10191 46.9561 8.71546C46.0388 9.59254 45.1948 10.501 44.4231 11.4402C40.4214 8.50638 35.772 7.00684 30.4093 7.00684C23.9297 7.00684 18.4914 9.19602 14.0946 13.4592C9.6977 17.7223 7.49926 23.0225 7.49926 29.4748C7.49926 35.8119 9.6977 41.112 14.0946 45.26C18.4914 49.6383 23.9297 51.7123 30.4093 51.7123C35.7714 51.7123 40.3687 50.3414 44.2634 47.5377C45.0779 48.5415 45.9751 49.5122 46.956 50.4501ZM51.4679 9.19602C50.8616 8.61638 50.2425 8.06711 49.6105 7.54822C48.9182 8.11547 48.2432 8.71996 47.5854 9.36167C46.7006 10.2075 45.8862 11.0829 45.1413 11.9876C45.7214 12.4469 46.2875 12.9375 46.8397 13.4592C47.8543 14.4968 48.7519 15.5863 49.5311 16.7291C50.3092 15.6386 51.2034 14.6044 52.2136 13.6248C52.7933 13.0628 53.3911 12.5368 54.0069 12.0471C53.2343 11.0623 52.3876 10.1118 51.4679 9.19602ZM30.4093 7.90699C35.568 7.90699 40.0213 9.33906 43.8612 12.146C42.8179 13.4994 41.9197 14.9142 41.1642 16.3887C41.0146 16.2507 40.8594 16.1167 40.6987 15.9867C38.6404 14.3214 35.7557 13.4808 32.3763 13.4808H18.0503V44.7775H26.5692V33.8316H31.9134C33.0093 33.8316 33.649 34.1208 33.9018 34.343C34.1971 34.7407 34.4988 35.5538 34.7177 36.8417L34.9455 39.9043C35.0056 40.9163 35.1268 41.8103 35.3187 42.5589C35.508 43.2973 35.7829 43.9618 36.1944 44.4536L36.4655 44.7775H42.2834C42.7221 45.4754 43.1961 46.159 43.7057 46.8283C39.9815 49.4999 35.5823 50.8121 30.4093 50.8121C24.1458 50.8121 18.9451 48.8171 14.7338 44.6235L14.7251 44.6149L14.7163 44.6065C10.5114 40.6397 8.40322 35.5814 8.40322 29.4748C8.40322 23.2527 10.512 18.1892 14.7252 14.1041C18.9473 10.0104 24.1568 7.90699 30.4093 7.90699ZM44.5794 12.6927C43.5051 14.0861 42.5899 15.5464 41.8309 17.0721C43.1836 18.6176 43.9253 20.5755 43.9253 22.9072C43.9253 24.7003 43.5524 26.2836 42.7525 27.5946C42.2128 28.4792 41.4953 29.2122 40.6151 29.7924C41.2337 30.3047 41.7505 30.9116 42.1573 31.6206C42.8223 32.7794 43.1653 34.1611 43.2295 35.7558L43.5757 39.7781L43.5764 39.7885C43.6866 41.5445 44.123 42.6986 44.6333 43.2915L45.9124 44.7775H43.3571C43.6939 45.2886 44.0507 45.7916 44.4277 46.2867C45.0387 45.8078 45.6309 45.2905 46.2047 44.7344C47.2323 43.7107 48.1346 42.6255 48.9101 41.4781C46.7156 38.0769 45.6183 34.1174 45.6183 29.6404C45.6183 25.0312 46.7402 21.0099 48.984 17.5345C48.1923 16.3302 47.2652 15.1863 46.2045 14.0999C45.6758 13.6011 45.1342 13.132 44.5794 12.6927ZM40.1286 16.6853C40.3464 16.8615 40.5529 17.0457 40.7479 17.2378C38.9827 21.0065 38.1191 25.1505 38.1191 29.6404C38.1191 34.9062 39.307 39.647 41.7417 43.8773H36.8888C36.3103 43.186 35.9632 41.8034 35.8475 39.8446L35.6161 36.7337C35.3847 35.351 35.0375 34.314 34.5747 33.7379C34.1119 33.2771 33.1862 32.9314 31.9134 32.9314H25.6653V43.8773H18.9543V14.3809H32.3763C35.6161 14.3809 38.2773 15.1875 40.1286 16.6853ZM42.7896 43.8773C40.2805 39.7127 39.0473 35.0299 39.0234 29.7957C39.289 29.9435 39.5386 30.1038 39.7722 30.277C41.377 31.4664 42.2287 33.2641 42.3271 35.8119L42.6742 39.8446C42.7545 41.1234 43.0017 42.1804 43.3774 42.9772C43.5433 43.3291 43.7343 43.6302 43.947 43.8773H42.7896ZM41.405 17.9714C39.8063 21.523 39.0239 25.4162 39.023 29.6337C39.3055 29.5093 39.573 29.3724 39.8255 29.2233C41.956 27.9652 43.0213 25.834 43.0213 22.9072C43.0213 20.9466 42.4513 19.3013 41.405 17.9714ZM52.4153 29.4748C52.4153 33.682 51.4142 37.397 49.4482 40.6383C47.4988 37.467 46.5223 33.7965 46.5223 29.6404C46.5223 25.36 47.5203 21.6279 49.5149 18.3855C51.4381 21.6392 52.4153 25.3184 52.4153 29.4748ZM53.3192 29.4748C53.3192 34.0042 52.1962 38.0039 49.9922 41.4738C50.7994 42.6458 51.7471 43.7455 52.8353 44.7721L52.8442 44.7805L52.8528 44.7891C53.3679 45.302 53.8978 45.782 54.4426 46.2295C55.0714 45.3916 55.6472 44.5308 56.1694 43.6466V15.2182C55.6778 14.3791 55.1387 13.5613 54.5527 12.7651C53.9662 13.2324 53.3968 13.734 52.8443 14.2698C51.7832 15.2985 50.8557 16.3893 50.0616 17.5451C52.2197 21.0302 53.3192 24.9932 53.3192 29.4748ZM57.0733 41.9858V16.893C58.9527 20.6891 59.9145 24.8904 59.9145 29.4748C59.9145 34.0592 58.9527 38.2222 57.0733 41.9858Z" fill="#DDD8D0"/>
</svg>
